<?xml version="1.0" encoding="utf-8"?>
<!-- Generator: Adobe Illustrator 26.5.0, SVG Export Plug-In . SVG Version: 6.00 Build 0)  -->
<svg version="1.1" id="레이어_1" xmlns="http://www.w3.org/2000/svg" xmlns:xlink="http://www.w3.org/1999/xlink" x="0px"
	 y="0px" viewBox="0 0 1920 800" style="enable-background:new 0 0 1920 800;" xml:space="preserve">
<style type="text/css">
	.st0{fill:#040000;}
</style>
<g>
	<polygon class="st0" points="543.4,155.15 505.65,253.81 646.35,593.55 562.27,593.55 470.48,362.77 367.52,366.2 485.92,71.93 
		247.42,71.93 7.2,663.9 239.69,663.9 278.3,595.26 111.86,592.69 295.46,139.71 380.39,144 229.4,505.18 308.33,506.9 
		338.36,436.55 419.86,437.41 513.37,663.9 752.73,663.9 	"/>
	<g>
		<g>
			<g>
				<path d="M1458.28,590.11h-85.83v-36.39h85.83V590.11z"/>
				<path d="M1645.41,663.9h-40.44l-68.08-99.02h-1.27v99.02h-48.18V480.31h41.21l67.07,98.77h1.52v-98.77h48.18V663.9z"/>
				<path d="M1718.44,663.9h-48.18V480.31h48.18V663.9z"/>
				<path d="M1825.19,535.08h1.52l31.32-54.77h53.88l-54.9,91.79l57.05,91.79h-55.28l-32.08-55.66h-1.52l-32.08,55.66h-54.9
					l56.42-91.79l-54.77-91.79H1794L1825.19,535.08z"/>
			</g>
		</g>
		<g>
			<g>
				<path d="M800.55,480.31h48.18v144.66h74.93v38.92H800.55V480.31z"/>
				<path d="M1076.29,529.38c-2.75-3.13-6.17-5.49-10.27-7.1c-4.1-1.6-8.9-2.41-14.39-2.41c-8.45,0-15.7,2.03-21.74,6.09
					c-6.04,4.06-10.69,10-13.95,17.81c-3.25,7.82-4.88,17.18-4.88,28.08c0,11.07,1.54,20.52,4.63,28.34
					c3.08,7.82,7.63,13.8,13.63,17.94c6,4.14,13.31,6.21,21.93,6.21c7.61,0,14.07-1.16,19.4-3.49c5.32-2.32,9.3-5.64,11.92-9.95
					c2.62-4.31,3.93-9.38,3.93-15.21l8.62,1.01h-42.85v-34.87h80.76v25.23c0,16.31-3.49,30.45-10.46,42.41
					c-6.97,11.96-16.65,21.11-29.03,27.45c-12.38,6.34-26.56,9.51-42.54,9.51c-17.67,0-33.26-3.8-46.78-11.41
					c-13.52-7.61-24.03-18.51-31.51-32.71c-7.48-14.2-11.22-30.85-11.22-49.95c0-19.61,3.93-36.56,11.79-50.84
					c7.86-14.28,18.53-25.14,32.01-32.58c13.48-7.44,28.55-11.16,45.2-11.16c14.28,0,27.3,2.68,39.05,8.05
					c11.75,5.37,21.26,12.83,28.53,22.38c7.27,9.55,11.58,20.41,12.93,32.58h-48.94C1080.96,536.31,1079.04,532.51,1076.29,529.38z"
					/>
				<path d="M1340.05,623.01c-7.73,14.24-18.34,25.04-31.82,32.39c-13.48,7.35-28.63,11.03-45.45,11.03
					c-16.82,0-31.95-3.68-45.39-11.03c-13.44-7.35-24.03-18.17-31.76-32.46c-7.73-14.28-11.6-31.23-11.6-50.84
					c0-19.86,3.87-36.89,11.6-51.09c7.73-14.2,18.32-24.96,31.76-32.27c13.44-7.31,28.57-10.97,45.39-10.97
					c16.82,0,31.97,3.66,45.45,10.97c13.48,7.31,24.09,18.07,31.82,32.27c7.73,14.2,11.6,31.23,11.6,51.09
					C1351.65,591.8,1347.78,608.77,1340.05,623.01z M1297.58,543.58c-3-7.78-7.44-13.67-13.31-17.69
					c-5.88-4.01-13.04-6.02-21.49-6.02c-8.45,0-15.59,2.01-21.43,6.02c-5.83,4.02-10.25,9.91-13.25,17.69
					c-3,7.78-4.5,17.29-4.5,28.53c0,11.24,1.5,20.75,4.5,28.53c3,7.78,7.42,13.67,13.25,17.69c5.83,4.02,12.97,6.02,21.43,6.02
					c8.45,0,15.61-2.01,21.49-6.02c5.87-4.01,10.31-9.91,13.31-17.69c3-7.78,4.5-17.28,4.5-28.53
					C1302.08,560.86,1300.57,551.36,1297.58,543.58z"/>
			</g>
		</g>
	</g>
</g>
</svg>
